<?xml version="1.0" encoding="utf-8"?>
<svg width="24" height="24" viewBox="0 0 24 24" fill="none" xmlns="http://www.w3.org/2000/svg">
  <g filter="url(#filter3_d_73_3139)">
    <path d="M10.8682 4.7334C13.6798 2.44866 17.8198 2.74706 20.2715 5.46973L20.4805 5.70117L20.7031 5.95117C21.8058 7.22854 22.706 8.9446 22.6563 10.5889L22.6553 10.5879C22.6396 11.1832 22.4711 11.7823 22.1387 12.3213L22.1357 12.3271L22.1182 12.3545L22.1152 12.3584L22.0703 12.4316L21.9102 12.6797C21.8424 12.7834 21.7603 12.9079 21.665 13.0488L21.3408 13.5186C20.9229 14.1135 20.3447 14.8951 19.6572 15.71L19.3555 16.0605C18.6505 16.8674 17.7828 17.76 16.8057 18.5264L16.3809 18.8467C15.2927 19.6308 13.6821 20.5272 11.7676 20.5273C10.1244 20.5273 8.66845 19.8634 7.58497 19.1973L7.14454 18.9131C6.10126 18.2132 5.13343 17.3576 4.31446 16.5469L3.97266 16.2021C3.2975 15.5108 2.6956 14.827 2.20899 14.2451L1.7627 13.7012C1.62668 13.5322 1.50351 13.3769 1.39551 13.2383L1.11719 12.875L0.935553 12.6328C0.913663 12.6031 0.896484 12.579 0.883795 12.5615L0.881842 12.5586L0.863288 12.5322L0.859381 12.5273C-0.262524 10.9679 0.0905634 8.79304 1.65137 7.66992L1.79883 7.56836C3.34625 6.56968 5.42153 6.95135 6.5088 8.46094H6.50782L6.51172 8.46582L6.53907 8.50391H6.54005C6.56738 8.541 6.61071 8.59973 6.66895 8.67676L7.1836 9.33594L7.55176 9.7832C7.79476 10.0737 8.06952 10.3902 8.36622 10.7158C8.16455 8.62766 8.9219 6.4744 10.6006 4.96289L10.8682 4.7334ZM18.9375 6.67188C17.0705 4.5984 13.8752 4.43089 11.8018 6.29785C9.72862 8.16488 9.56184 11.3593 11.4287 13.4326L12.5547 14.6836C12.6514 14.791 12.7537 14.8914 12.8604 14.9834C12.377 15.2629 12.0123 15.3632 11.7676 15.3633C11.4269 15.3633 10.842 15.1755 10.0215 14.625C9.23978 14.1006 8.42535 13.3713 7.667 12.5947C6.91561 11.8253 6.25774 11.0488 5.78516 10.4619C5.55007 10.1699 5.36292 9.9281 5.23633 9.76074C5.17319 9.67724 5.12519 9.612 5.09376 9.56934C5.07804 9.54802 5.06578 9.53233 5.0586 9.52246L5.05079 9.51074C4.50743 8.75643 3.45488 8.58487 2.7002 9.12793C1.94548 9.67118 1.77426 10.7237 2.31739 11.4785L2.33594 11.5039C2.34682 11.5188 2.36219 11.5407 2.38184 11.5674C2.42112 11.6207 2.47768 11.6966 2.54981 11.792C2.69423 11.9829 2.90273 12.2521 3.16212 12.5742C3.67887 13.216 4.40946 14.0785 5.25782 14.9473C6.09917 15.8088 7.09502 16.7177 8.14454 17.4219C9.15528 18.1 10.4242 18.7314 11.7676 18.7314C13.1284 18.7313 14.3636 18.0861 15.3301 17.3896C16.3272 16.6711 17.2437 15.7478 18.0029 14.8789C18.7691 14.002 19.4163 13.1324 19.8701 12.4863C20.0981 12.1618 20.2803 11.8901 20.4063 11.6973C20.4693 11.6008 20.5184 11.5239 20.5527 11.4697C20.5698 11.4429 20.5832 11.4215 20.5928 11.4062L20.6104 11.3789C20.7731 11.1151 20.8537 10.8232 20.8604 10.5342C20.893 9.44924 20.2092 8.05268 19.1621 6.92188L18.9375 6.67188ZM14.0557 8.80078C14.7468 8.17846 15.8123 8.23366 16.4346 8.9248L16.6592 9.17578C17.068 9.62983 17.2863 10.1057 17.0449 10.6494C16.6415 11.2185 16.0948 11.9444 15.4668 12.6631L15.4522 12.6797L13.9316 11.1787C13.3094 10.4876 13.3647 9.42313 14.0557 8.80078Z" fill="black"/>
  </g>
  <defs>
    <filter id="filter3_d_73_3139" x="0.203857" y="3.20376" width="22.4544" height="17.3236" filterUnits="userSpaceOnUse" color-interpolation-filters="sRGB">
      <feFlood flood-opacity="0" result="BackgroundImageFix"/>
      <feColorMatrix in="SourceAlpha" type="matrix" values="0 0 0 0 0 0 0 0 0 0 0 0 0 0 0 0 0 0 127 0" result="hardAlpha"/>
      <feOffset/>
      <feComposite in2="hardAlpha" operator="out"/>
      <feColorMatrix type="matrix" values="0 0 0 0 0 0 0 0 0 0 0 0 0 0 0 0 0 0 1 0"/>
      <feBlend mode="normal" in2="BackgroundImageFix" result="effect1_dropShadow_73_3139"/>
      <feBlend mode="normal" in="SourceGraphic" in2="effect1_dropShadow_73_3139" result="shape"/>
    </filter>
  </defs>
</svg>